<?xml version="1.0" encoding="utf-8"?>
<!-- Generator: Adobe Illustrator 21.1.0, SVG Export Plug-In . SVG Version: 6.00 Build 0)  -->
<svg version="1.1" id="Laag_1" xmlns="http://www.w3.org/2000/svg" xmlns:xlink="http://www.w3.org/1999/xlink" x="0px" y="0px"
   viewBox="0 0 63.8 61.5" style="enable-background:new 0 0 63.8 61.5;" xml:space="preserve">
<path d="M31.2,0.1c3.1-0.6,5.4,2.1,6.7,4.6C45.8,19.8,53.6,34.9,61.7,50c1.3,2.6,3.2,5.9,1.3,8.8c-1.6,2.9-5.2,2.6-8,2.7
  c-12.7-0.1-25.4-0.1-38-0.1c-4.2-0.1-8.5,0.4-12.6-0.2c-2.5-0.4-4.4-2.9-4.3-5.4c0.3-2,1.2-3.9,2.1-5.7C10,35.1,17.8,20.3,25.6,5.3
  C26.8,3.1,28.3,0.3,31.2,0.1 M30.4,18c-0.2,0.3-0.7,0.8-1,1.1c-0.8,5.2-0.3,10.4-0.4,15.7c0.3,1.8-0.3,4.3,1.6,5.3
  c1.7,1.1,4.2-0.4,4.1-2.4c0.5-5.9,0.5-11.9,0-17.7C34.6,17.6,32,17.4,30.4,18 M30.2,44.8c-2.7,1.1-3.5,4.9-1.3,6.9
  c2.2,2.5,6.6,1,7.1-2.1C36.9,46.4,33.2,43.3,30.2,44.8z"/>
</svg>
