<?xml version="1.0" encoding="utf-8"?>
<!-- Generator: Adobe Illustrator 21.1.0, SVG Export Plug-In . SVG Version: 6.00 Build 0)  -->
<svg version="1.1" id="Laag_1" xmlns="http://www.w3.org/2000/svg" xmlns:xlink="http://www.w3.org/1999/xlink" x="0px" y="0px"
   viewBox="0 0 64 63.4" style="enable-background:new 0 0 64 63.4;" xml:space="preserve">
<path d="M57.9,0.7c1.9-1.2,4-0.5,6,0C63.9,6,59,9,56.1,12.8c-9.7,11.6-18.6,23.9-25.9,37.1c-2.5,4.3-4,9.1-6.7,13.2
  c-0.3,0.1-1,0.2-1.3,0.3c-3.9-4.3-6-9.9-9.5-14.6c-3.2-5-7.5-9.1-11.6-13.4c-2.5-2-0.1-6.3,2.9-5.7C9.9,30.6,15,34,20.8,35.7
  c5.8-5.7,10.9-11.9,16.7-17.6C43.8,11.9,49.8,4.8,57.9,0.7z"/>
</svg>
