<?xml version="1.0" encoding="utf-8"?>
<!-- Generator: Adobe Illustrator 21.1.0, SVG Export Plug-In . SVG Version: 6.00 Build 0)  -->
<svg version="1.1" id="Laag_1" xmlns="http://www.w3.org/2000/svg" xmlns:xlink="http://www.w3.org/1999/xlink" x="0px" y="0px"
   viewBox="0 0 865 1235.4" style="enable-background:new 0 0 865 1235.4;" xml:space="preserve">
<g id="_x23_ffffffff">
</g>
<g id="_x23_1d1d1bff">
  <path d="M82.6,7.2C96.5,2.4,111.3,0.1,126,0c195.3,0,390.7,0,586,0c18.6,0.2,37.4-1.1,55.8,3.1c35,7.1,65.7,30.9,82.5,62.2
    c8.5,15.8,13,33.5,14.3,51.3c0.6,8,0.4,16,0.5,24c0,241.4,0.1,482.8-0.1,724.2c-56,0.3-112,0-167.9,0.1c-176.3,0-352.7,0-529,0
    c-56-0.1-112,0.2-167.9-0.1C-0.1,625.4,0.1,386,0,146.6c0.1-10.9-0.4-21.7,0.7-32.6c1.6-18.9,7.1-37.5,16.9-53.8
    C32.4,35.8,55.5,16.4,82.6,7.2 M82.1,78.6c-12.8,11.5-19.8,28.7-19.7,45.9c0,226,0,452,0,677.9c20.9,0.3,41.8,0,62.7,0.1
    c164,0,328,0,492,0c61.9-0.1,123.8,0.2,185.7-0.2c0-226,0-451.9,0-677.9c-0.1-8.9-1.8-17.9-5.5-26.1c-9.2-21-31.1-35.7-54.2-36
    c-38-0.4-76-0.1-114-0.2c-167.3,0-334.6,0-502,0C110.7,61.9,94,67.3,82.1,78.6z"/>
  <path d="M351,190.6c15.4,3.4,30,9.6,44.6,15.4c33.1,12.2,63.2,31,92.2,50.8c27.3,18.8,51.1,42.4,71.4,68.5
    c11.3,14.7,22,30,30.2,46.6c18.2,36.4,26.5,77.1,28.4,117.6c0.4,19.1-0.6,38.3-2.8,57.2c-2.5,21-6.8,41.9-14.3,61.7
    c-4.8,12.8-11.3,24.9-18.4,36.6c-11.1,18-24.7,34.7-41.8,47.2c-13.1,9.7-27,18.6-42.1,24.9c-8.6,3.8-18,5.5-27,8
    c-8.9,2.5-18.2,3.4-27.4,3.8c3.8-7,8.4-13.5,13.4-19.7c12.5-16.1,23.5-33.4,32.2-51.8c9.3-18.2,15.1-38.4,15.7-58.9
    c0-32.9-9.8-65-24.2-94.3c-13.6-28.1-31.4-54.4-53.9-76.1c-6.9-6.3-14.1-12.6-22.4-16.9c-1.7,28.6-5.1,57.1-11.5,85.1
    c-2.6,12-8.1,22.9-12.7,34.2c-4.2,9.6-8.8,19.1-13.2,28.7c-8.1,18.9-8.3,40.2-5.6,60.3c4,23.1,12.5,45.4,24.5,65.6
    c6.3,10.6,12.3,21.4,19.8,31.2c4.3,6.5,8.9,12.9,12.8,19.7c-9.6-2.9-18.9-6.7-28.3-10.2c-13.7-6.6-27.6-13.1-40.1-21.8
    c-13.5-9.3-26.3-19.6-38.3-30.8c-12-11.5-22.4-24.6-31.4-38.6c-9.5-14.7-17.9-30.3-23.2-47c-13-40-13.4-83.2-5.3-124.2
    c2.8-13.6,6.8-27,12.7-39.6c7.9-17.5,16.9-34.6,27.3-50.7c4.9-7.7,10.3-15,15.2-22.7c9.7-15.1,18.3-31,25.6-47.4
    c13.6-29,17.6-61.6,17.8-93.4C351.1,203.3,350.9,196.9,351,190.6z"/>
  <path d="M0.1,926.4c92.3-0.3,184.6,0,276.9-0.2c142.3,0,284.7,0,427,0c53.6,0.1,107.3-0.2,160.9,0.1c0.2,54.8,0,109.5,0.1,164.2
    c-0.1,9.6,0.3,19.3-0.5,28.9c-1.3,18.3-6.2,36.4-15.2,52.4c-16.5,29.5-45.3,52-78.3,59.7c-19.9,5.1-40.6,3.5-61,3.8
    c-194.7,0-389.4,0-584,0c-22.1-0.1-44.3-5.2-63.5-16.2c-24.4-14.1-44.1-36.5-54-62.9c-6.1-16.1-8.5-33.5-8.4-50.6
    C0.1,1045.8-0.1,986.1,0.1,926.4 M62.4,988.7c0,36.6,0,73.2,0,109.8c0,8.9-0.5,18,1.6,26.8c4.6,22,22.6,40.5,44.5,45.7
    c11.9,3.1,24.4,1.7,36.6,2c198.3,0,396.7,0,595.1,0c16.4,0.1,33-6.1,44.5-18c12-11.4,18.2-28.1,18.1-44.5c0-40.6,0-81.3,0-121.9
    c-40.9-0.4-81.8-0.1-122.7-0.2c-125.3,0-250.7,0-376,0C223.5,988.7,142.9,988.4,62.4,988.7z"/>
</g>
</svg>
