<?xml version="1.0" encoding="utf-8"?>
<!-- Generator: Adobe Illustrator 21.1.0, SVG Export Plug-In . SVG Version: 6.00 Build 0)  -->
<svg version="1.1" id="Laag_1" xmlns="http://www.w3.org/2000/svg" xmlns:xlink="http://www.w3.org/1999/xlink" x="0px" y="0px"
   viewBox="0 0 370.9 545.3" style="enable-background:new 0 0 370.9 545.3;" xml:space="preserve">
<g id="_x23_ffffffff">
</g>
<path d="M103.9,0c15.4,3.4,30,9.6,44.6,15.4c33.1,12.2,63.2,31,92.2,50.8c27.3,18.8,51.1,42.4,71.4,68.5c11.3,14.7,22,30,30.2,46.6
  c18.2,36.4,26.5,77.1,28.4,117.6c0.4,19.1-0.6,38.3-2.8,57.2c-2.5,21-6.8,41.9-14.3,61.7c-4.8,12.8-11.3,24.9-18.4,36.6
  c-11.1,18-24.7,34.7-41.8,47.2c-13.1,9.7-27,18.6-42.1,24.9c-8.6,3.8-18,5.5-27,8c-8.9,2.5-18.2,3.4-27.4,3.8
  c3.8-7,8.4-13.5,13.4-19.7c12.5-16.1,23.5-33.4,32.2-51.8c9.3-18.2,15.1-38.4,15.7-58.9c0-32.9-9.8-65-24.2-94.3
  c-13.6-28.1-31.4-54.4-53.9-76.1c-6.9-6.3-14.1-12.6-22.4-16.9c-1.7,28.6-5.1,57.1-11.5,85.1c-2.6,12-8.1,22.9-12.7,34.2
  c-4.2,9.6-8.8,19.1-13.2,28.7c-8.1,18.9-8.3,40.2-5.6,60.3c4,23.1,12.5,45.4,24.5,65.6c6.3,10.6,12.3,21.4,19.8,31.2
  c4.3,6.6,8.9,12.9,12.8,19.7c-9.6-2.9-18.9-6.7-28.3-10.2c-13.7-6.6-27.6-13.1-40.1-21.8c-13.5-9.3-26.3-19.6-38.3-30.7
  c-12-11.5-22.4-24.6-31.4-38.6c-9.5-14.7-17.9-30.3-23.2-47c-13-40-13.4-83.2-5.3-124.2c2.8-13.6,6.8-27,12.7-39.6
  c7.9-17.5,16.9-34.6,27.3-50.7c4.9-7.7,10.3-15,15.2-22.7c9.7-15.1,18.3-31,25.6-47.4c13.6-29,17.6-61.6,17.8-93.4
  C104,12.6,103.7,6.3,103.9,0z"/>
</svg>
