<?xml version="1.0" encoding="utf-8"?>
<!-- Generator: Adobe Illustrator 21.1.0, SVG Export Plug-In . SVG Version: 6.00 Build 0)  -->
<svg version="1.1" id="Laag_1" xmlns="http://www.w3.org/2000/svg" xmlns:xlink="http://www.w3.org/1999/xlink" x="0px" y="0px"
   viewBox="0 0 1390 1001.2" style="enable-background:new 0 0 1390 1001.2;" xml:space="preserve">
<g id="_x23_ffffffff">
</g>
<g id="_x23_000000ff">
  <path d="M984.1,119.6C1119.4,79.7,1254.7,39.8,1390,0v1c-2.1,8.9-2.3,18-3.4,27c-4.3,47.5-8.9,95-12.8,142.6
    c-4.1,47-8.1,94-12.5,141c-3.8,43.7-8.7,87.4-13,131c-2.7,26.6-5.1,53.2-8.5,79.6c-8.4-4-14.9-10.7-22-16.5
    c-48-39.3-95.8-79-143.7-118.3c-3.5-2.9-6.9-6.1-10.8-8.5c-5.8,4.9-10,11.3-14.8,17c-26.1,31.9-52.3,63.7-78.4,95.6
    c-6,7.2-11.6,14.7-18.2,21.4c-5.7-57.7-18.5-115.1-41.9-168.4c10.9-13.2,21.7-26.4,32.5-39.6c4.2-5.2,8.9-10,12.5-15.7
    c-3.1-4.2-7.6-7-11.5-10.4c-49.1-40.9-98-82-147.2-122.8c-2.8-2.3-5.5-4.9-7.3-8.1c25.8-9,52.1-16.2,78.1-24.4
    C972.7,121.9,978.5,121.1,984.1,119.6z"/>
  <path d="M568.8,31.1c18.8,5.5,36.6,13.7,54.9,20.7c47.5,17.8,91.6,43.4,133.9,71.1c16.2,10.7,32.4,21.4,47.8,33.2
    c48.9,37.5,90.8,83.6,126,134c15.2,21.6,28.6,44.5,39.3,68.7c24.3,54.4,36.5,113.4,40.9,172.6c1.9,22.3,1.1,44.8,0.3,67.1
    c-2.3,46.5-8.2,93.1-22,137.7c-9.6,31.8-25,61.5-42.7,89.5c-16.9,26.3-37.1,50.9-61.9,70.1c-25.8,19.7-53.5,37.5-84,49.2
    c-13,4.5-26.3,7.6-39.6,10.7c3.7-6.3,8.6-11.8,12.6-17.9c20.5-29,38-60.2,52.5-92.6c17.4-40,26.1-84.2,21.4-127.8
    c-5.6-64.3-29.1-125.7-60.2-181.8c-24-43.1-53.7-83.4-89.7-117.3C685,406,670.8,394.3,654.6,386c-9.2-4.7-18.3-9.7-27.7-14.3
    c-1.7,22.4-2.5,44.8-4.7,67.2c-3,33.1-7.4,66.1-14,98.7c-2.7,12.9-5.2,25.9-10,38.2c-10.7,27.4-22.8,54.1-35.3,80.7
    c-16.1,32-20.7,68.6-18.5,104.1c1.7,36.5,11.9,72.1,25.7,105.8c12.4,30.5,30.4,58.1,47,86.4c-8.9-3.6-17.3-8.3-25.8-12.6
    c-25.5-13-48.6-30.3-70.8-48.1c-14.4-11.9-28.7-24-41.3-37.6c-20.8-22.2-38.2-47.3-53.5-73.5c-8.8-15.1-16.6-30.8-22.9-47.1
    c-14.6-38.5-21.8-79.6-23.2-120.7c-1.2-39.8,2.8-79.7,11.4-118.6c4.5-19.8,10.8-39.2,19.5-57.6c13.8-30.5,29.5-60.2,47.5-88.5
    c8.9-14,18.7-27.3,27.7-41.2c20.9-32.3,38.9-66.5,54.1-101.9c15.6-37.3,23.6-77.4,26.9-117.6C568.3,68.8,568.5,49.9,568.8,31.1z"/>
  <path d="M321,520.5c9.8-11.7,18.9-23.8,29.1-35.1c-15.8,73.1-17.7,150,0.9,222.8c-15.1,17.4-29.3,35.5-44.1,53.2
    C242,840.5,177,919.5,112,998.6c-1.4,1.5-3.3,3.4-5.5,2.3c-4.5-1.8-7.9-5.5-11.6-8.4c-19.2-15.8-38.5-31.5-57.8-47.2
    c-12.4-9.9-24.4-20.5-37.2-30v-0.7C10.9,899,23.7,884.9,35.5,870C130.7,753.5,225.9,637,321,520.5z"/>
  <path d="M782.4,621.2c11.8,29.6,20,60.7,23.6,92.3c1.7,15.6,2.6,31.4,0.8,47.1c-2.8,26.3-10.6,52-21.8,75.9
    c-1.5,3.1-2.8,6.3-4.8,9.1c-10.9,12.2-20.9,25.2-31.4,37.7c-12.9,15.8-25.8,31.5-38.7,47.3c-2.4,3-5.1,5.8-8.2,8.1
    c-6-5.5-10.4-12.3-15.8-18.2c-30.4-36.3-60.4-73-90.8-109.3c-4.8-15.4-7.8-31.4-8.9-47.6c-1.6-21.7-1-43.8,4.9-64.8
    c3.5-13.4,10.2-25.7,15.8-38.2c5.8-12.4,11.4-24.8,16.9-37.3c21.2,26.2,42.8,52.2,64.1,78.3c4.6,5.4,8.5,11.5,13.9,16.2
    c6.3-5.8,11.5-12.7,17.1-19.3C739.8,672.5,761.3,647.1,782.4,621.2z"/>
</g>
</svg>
