<svg height="960" viewBox="0 0 960 960" width="960" xmlns="http://www.w3.org/2000/svg"><g style="stroke:#000;stroke-width:40;fill:none;fill-rule:evenodd;stroke-linecap:round;stroke-linejoin:round"><path d="m63.2517365 28.8016147c4.3369215-.6995034 8.8137437-.9793048 13.2905659-.9793048h226.6391246c8.673843 0 17.627487 1.1192055 25.322025 5.456127 12.171361 6.5753327 21.824509 18.6067923 24.06292 32.456961 1.259106 7.8344389.839404 15.8087785.839404 23.783118v247.6242281c0 8.673843.419702 17.347686-.839404 26.021529-2.518213 15.668878-14.12997 29.379146-28.819543 35.254975-6.995035 2.798014-14.549672 3.217716-21.824509 3.217716-75.546374 0-151.092749 0-226.6391238 0-11.6117576.139901-23.6432173-3.077815-32.456961-10.912254-11.0521548-9.093545-17.2077854-22.943714-16.927984-36.933783-.1399007-89.536444 0-179.072888-.1399007-268.6093326 0-9.6531479-.4197021-19.8658985 3.6374181-28.819543 6.0157298-13.8501687 18.8865937-24.7624228 33.8559679-27.5604367"/><path d="m488.850365 28.9429086c4.512929-.840449 9.171436-1.1205987 13.829943-1.1205987h381.415297c8.734702 0 17.76056.840449 25.621791 4.7625446 13.684366 6.7235925 24.457164 19.6104781 26.495261 34.4584115 1.164627 8.2644158.582314 16.8089812.727892 25.073397v249.333221c0 10.925838.582313 22.55205-4.367351 32.637439-6.405448 13.447185-19.5075 23.952798-34.647649 26.474145-8.88028 1.540823-17.906138.980524-26.931996.980524-123.304869 0-246.609738 0-369.769028 0-11.791847.140075-23.729272-3.081647-32.755131-10.505613-11.646268-8.824715-18.197294-22.8322-18.051716-36.979759-.145578-90.628424 0-181.256847-.145578-271.8852709 0-8.96479.145578-18.3498045 4.076194-26.7542951 6.551026-13.0269604 19.5075-23.5325737 34.502071-26.4741454"/><path d="m64.4342796 499.061797c4.618465-.865962 9.2369299-1.010289 13.8553949-1.154616h427.2080095c11.690489-.288654 23.525305 3.175195 32.329254 10.968854 11.401836 9.092603 18.185206 23.380979 17.752225 38.102336v333.539767c0 9.525584-1.587597 19.195495-6.639043 27.422136-8.515295 14.57703-24.968577 24.246941-41.999166 23.81396-143.461068 0-286.777809 0-430.2388768 0-12.5564516.288654-25.4015573-3.608176-34.6384872-12.267798-10.8245273-9.381257-16.5976085-23.525306-16.3089544-37.669355-.1443271-107.812291 0-215.480256 0-323.292547 0-10.535873-.5773082-21.504728 3.7525027-31.174639 6.2060623-14.288376 19.4841491-25.545884 34.9271413-28.288098"/><path d="m686.13772 499.09826c4.473801-.865897 9.236235-1.010214 13.854353-1.15453h180.395226c9.669184 0 19.915633.144316 28.863236 4.473802 14.431618 6.927177 25.832596 21.214478 27.420074 37.377891.865897 8.65897.432949 17.317941.432949 25.976912v314.609274c.144316 11.400978-2.597692 23.234905-9.957817 32.326824-9.091919 12.266876-24.245118 19.338369-39.542633 19.049736-62.055958.144317-124.256232 0-186.31219 0-9.380551 0-18.905419-.865897-27.275758-5.339698-12.122559-6.349912-21.791743-17.895207-24.966699-31.316612-1.298846-5.772647-1.443162-11.833926-1.587478-17.75089.144316-110.69051-.144316-221.236705.144316-331.927215-.432948-21.93606 16.884993-42.428957 38.532421-46.325494"/></g></svg>