<svg height="960" viewBox="0 0 960 960" width="960" xmlns="http://www.w3.org/2000/svg"><g fill="none" fill-rule="evenodd"><path d="m927.349379 880.333638c0 31.873771-25.106001 57.666362-56.059986 57.666362h-779.4959459c-30.9539847 0-56.0599853-25.792591-56.0599853-57.666362v-801.6672762c0-31.8737709 25.1060006-57.6663618 56.0599853-57.6663618h779.4959459c30.953985 0 56.059986 25.7925909 56.059986 57.6663618z" stroke="#000" stroke-linecap="round" stroke-linejoin="round" stroke-width="40"/><path d="m531.780751 21h-111.055363v330.667237h.10005c1.500748 31.367228 25.712818 56.440029 55.427632 56.440029 29.714813 0 53.926883-24.967894 55.427631-56.440029h.10005v-2.727585c0-.104907 0-.209815 0-.314722s0-.209814 0-.314721z" fill="#000"/><path d="m840.620428 659.832757h86.72895v35.960784h-86.72895z" fill="#6d6e71" fill-rule="nonzero"/><path d="m840.620428 659.832757h86.72895v35.960784h-86.72895z" fill="#000"/><path d="m840.620428 568.873126h86.72895v35.960784h-86.72895z" fill="#6d6e71" fill-rule="nonzero"/><path d="m840.620428 568.873126h86.72895v35.960784h-86.72895z" fill="#000"/><path d="m840.620428 478.971165h86.72895v35.960784h-86.72895z" fill="#6d6e71" fill-rule="nonzero"/><path d="m840.620428 478.971165h86.72895v35.960784h-86.72895z" fill="#000"/></g></svg>