<?xml version="1.0" encoding="utf-8"?>
<!-- Generator: Adobe Illustrator 21.1.0, SVG Export Plug-In . SVG Version: 6.00 Build 0)  -->
<svg version="1.1" id="Laag_1" xmlns="http://www.w3.org/2000/svg" xmlns:xlink="http://www.w3.org/1999/xlink" x="0px" y="0px"
   viewBox="0 0 287.6 377.6" style="enable-background:new 0 0 287.6 377.6;" xml:space="preserve">
<g id="_x23_ffffffff">
  <path d="M115.9,2.5c32.5-5.8,67.3-1.7,96.4,14.4c24.7,13.9,45.7,34.8,59.2,59.8c16,29.6,19.6,64.9,13.2,97.6
    c-6,30.7-23.6,58.5-47.2,78.7c-19.8,17.5-44.7,29.3-71,32.9c-29.9,4.3-61.5,0.3-88.5-13.9c-14.4-7.5-27.4-17.7-38.6-29.4
    c-2.3-2.3-4.7-4.5-7.3-6.6c-0.2,37.7,0,75.5-0.1,113.2c-0.2,9.3,0.4,18.6-0.2,27.9c-10.6,0.4-21.1,0.5-31.7-0.1
    c-0.1-77,0-153.9-0.1-230.9c-0.1-9,0.4-18,1.9-26.8c4.2-29,18.8-55.9,39.4-76.6C61.3,22.4,87.5,7.6,115.9,2.5 M129.1,32.8
    c-16.9,2-33.2,8.1-47.2,17.7C61.1,65.1,44.1,86,36.8,110.5c-6.2,20.6-6.4,43-0.9,63.7c5.9,22,19.6,41.4,37,56
    c17.2,14.7,39.2,23.7,61.8,25.1c24.3,2,49.4-3.6,69.7-17.3c24.7-16.5,43.8-42.3,49.1-71.9c3.8-22.5,2.3-46.4-7.1-67.4
    c-10-22.3-27.6-41.1-48.8-53.2C177,33.8,152.5,30,129.1,32.8z"/>
</g>
</svg>
