<svg height="960" viewBox="0 0 960 960" width="960" xmlns="http://www.w3.org/2000/svg"><g fill="none" fill-rule="evenodd" stroke="#000" stroke-linecap="round" stroke-linejoin="round"><path d="m474.560097 23 .856713.0011292c29.725031.0754165 81.316201 4.0161864 155.576228 38.0052962 70.509521 32.2724881 75.936583 55.4300966 78.925421 79.8143566l.188069 1.558207c.123976 1.040049.24595 2.082717.370751 3.128801 1.352355 11.335549 13.722196 107.967427 25.419569 267.050376 4.120911 56.043932 9.830574 156.565474 17.128988 301.564625.224537 4.460925-2.85378 8.396549-7.206051 9.274197l-.262649.048969-1.503409.257101c-26.861954 4.584889-50.866435 8.205648-72.013445 10.862276l.001138 31.41297c0 2.610548-12.856504 7.611754-44.000324 11.96243l-.000087 33.196761c2.718119 1.827816 4.301731 5.084005 4.750836 9.768565v80.010328c0 11.341237-7.657841 29.066128-57.751367 32.18068-40.074821 2.491642-75.77784 2.779606-96.369823 2.795126l-3.681293.000189c-1.63285-.000962-3.144868-.003086-4.528859-.005077h-.154869c-1.383991.001991-2.896009.004115-4.52886.005077l-3.681292-.000189c-20.591983-.01552-56.295003-.303484-96.369823-2.795126-49.592591-3.083407-57.593967-20.486406-57.749036-31.838549l-.002332-.342131v-80.010328c.410002-4.276679 1.76555-7.362893 4.066646-9.25864l-.005077-34.900931c-24.800526-3.952651-35.5193-8.202398-35.978951-10.608615l-.015489-.15957.0003-31.539152c-20.902655-2.644684-44.573524-6.223382-71.012606-10.736094l-1.50341-.257101c-4.490465-.769402-7.697728-4.773022-7.4687-9.323166 7.298415-144.999151 13.008078-245.520693 17.128989-301.564625 11.697372-159.082949 24.067214-255.714827 25.419569-267.050376.1248-1.046084.246775-2.088752.370751-3.128801l.188069-1.558207c2.988838-24.38426 8.415899-47.5418685 78.92542-79.8143566 74.260028-33.9891098 125.851197-37.9298797 155.576229-38.0052962l.856713-.0011292z" stroke-width="40"/><g stroke-width="20"><path d="m474.084118 732.459547c-75.551335-.495071-128.74502-1.95666-159.581053-4.384769-29.155531-2.295782-66.336825-7.260345-111.543882-14.893689l-.000001.000005c-4.503006-.760346-7.722769-4.772664-7.489823-9.333467 7.299349-142.912248 13.010027-241.992396 17.132034-297.240445 11.704188-156.873463 24.081236-252.163231 25.434379-263.341342 3.121822-25.78889 4.476719-49.4721403 79.530551-83.3277351 75.053833-33.8555948 126.965062-37.4785584 156.561461-37.4785584"/><path d="m241.118329 129.274686c48.55082 25.621415 128.283876 38.432122 239.199165 38.432122"/><path d="m282.858883 725.281193v30.774938c0 5.016216 51.549779 19.225062 198.225235 19.225062"/><path d="m753.112436 732.459547c-75.551335-.495071-128.745019-1.95666-159.581053-4.384769-29.155531-2.295782-66.336825-7.260345-111.543882-14.893689v.000005c-4.503007-.760346-7.72277-4.772664-7.489823-9.333467 7.299348-142.912248 13.010026-241.992396 17.132033-297.240445 11.704188-156.873463 24.081237-252.163231 25.43438-263.341342 3.121821-25.78889 4.476718-49.4721403 79.530551-83.3277351 75.053832-33.8555948 126.965062-37.4785584 156.56146-37.4785584" transform="matrix(-1 0 0 1 1227.24651 0)"/><path d="m481.189541 129.274686c45.853553 25.621415 121.156994 38.432122 225.910323 38.432122" transform="matrix(-1 0 0 1 1188.289404 0)"/><path d="m481.134075 725.281193v30.774938c0 5.016216 51.549778 19.225062 198.225235 19.225062" transform="matrix(-1 0 0 1 1160.493384 0)"/><path d="m367.420061 88.974247v33.653056"/><path d="m397.777362 76.792808v33.653056"/><path d="m580.954851 88.921794v33.222106" transform="matrix(-1 0 0 1 1161.909702 0)"/><path d="m551.054955 76.740355v33.222106" transform="matrix(-1 0 0 1 1102.10991 0)"/><path d="m492.332741 935.99524h-23.665482l-91.813852-2.426343c-.399192-.021864-.798832-.043923-1.198908-.066178-49.509407-2.754138-57.497363-18.298716-57.654499-28.438593v-.305596-71.46623c.722757-6.745236 4.38875-10.175017 10.997979-10.289343l.344482-.002957c44.952927 3.760231 95.338773 5.640346 151.157539 5.640346s106.204612-1.880115 151.157539-5.640346c6.826423 0 10.607243 3.430767 11.342461 10.2923v71.46623c0 10.130136-7.644996 25.962231-57.654499 28.744189z"/></g></g></svg>