<svg height="960" viewBox="0 0 960 960" width="960" xmlns="http://www.w3.org/2000/svg"><g fill="none" fill-rule="evenodd"><path d="m286.04142 174-.000197 105.999937-37.999803.000063v57l37.999803-.000063.000197 106.000063c-15.498462-23.396404-25.885581-42.448216-31.161357-57.155436-5.275775-14.70722-9.555323-39.658494-12.838643-74.853823 4.535216-36.577258 9.577527-62.892785 15.126935-78.946581s15.173763-35.401849 28.873065-58.04416z" fill="#000" stroke="#000" stroke-linejoin="round" stroke-width="10"/><path d="m339.112101 309.754566c0-17.893757 14.504502-32.398545 32.397906-32.398545s32.397905 14.504788 32.397905 32.398545c0 17.892478-14.504501 32.397266-32.397905 32.397266s-32.397906-14.504788-32.397906-32.397266z" fill="#000" fill-rule="nonzero"/><g stroke="#000" stroke-linecap="round" stroke-linejoin="round"><path d="m743.480737 198.704015c-14.406838-34.039935-34.988035-64.669442-61.22906-90.923305-26.241026-26.2538632-56.855556-46.909476-90.878846-61.3233615-35.309616-14.8643195-72.741667-22.4573485-111.331411-22.4573485-38.589743 0-76.086111 7.593029-111.33141 22.4573485-34.023291 14.4138855-64.63782 35.0694983-90.878846 61.3233615-26.241026 26.253863-46.886539 56.88337-61.293376 90.923305-14.857051 35.262541-22.446368 72.777252-22.446368 111.385874v522.503352c0 23.679955 21.352992 43.885133 34.73077 50.963381l.321581.193043c14.857051 8.558244 96.79594 51.349467 250.833333 52.250335h.064316.064317c154.101709-.965216 235.976282-43.692091 250.833333-52.250335l.257265-.128696c13.442094-7.142595 34.795085-27.347773 34.795085-51.027728v-522.503352c0-38.608622-7.589316-76.123333-22.510683-111.385874z" stroke-width="40"/><g stroke-width="20"><path d="m205.539711 310.089889c0-37.064277 7.267735-73.034643 21.54594-106.881535 13.827992-32.688633 33.637393-62.095534 58.849359-87.319834 25.211966-25.2242993 54.540171-45.0433919 87.277137-58.8781482 15.821795-6.6921611 32.158119-11.8399774 48.816025-15.4434488 18.908975-4.0539053 38.332479-6.1130318 58.077565-6.1130318 19.680769 0 39.104273 2.0591265 58.013247 6.1130318 16.657906 3.6034714 32.994231 8.7512877 48.816026 15.4434488 32.67265 13.8347563 62.065171 33.6538489 87.277137 58.8781482 25.211966 25.2243 45.021367 54.566853 58.849359 87.319834 14.342521 33.846892 21.54594 69.817258 21.54594 106.881535v24.066041c-2.379701 29.020815-9.325855 57.269456-20.709829 84.166796-13.892308 32.817329-33.766026 62.288577-59.042308 87.577225-25.276282 25.288647-54.733119 45.172087-87.534402 59.071191-33.958974 14.349538-70.040384 21.685176-107.21517 21.685176-37.174787 0-73.256197-7.27129-107.215171-21.685176-32.801282-13.899104-62.25812-33.782544-87.534402-59.071191-25.276282-25.288648-45.15-54.759896-59.042308-87.577225-11.44829-26.89734-18.394444-55.081634-20.774145-84.166796z"/><path d="m205.539711 310.089889c0-37.064277 7.267735-73.034643 21.54594-106.881535 13.827992-32.688633 33.637393-62.095534 58.849359-87.319834 25.211966-25.2242993 54.540171-45.0433919 87.277137-58.8781482 15.821795-6.6921611 32.158119-11.8399774 48.816025-15.4434488 18.908975-4.0539053 38.332479-6.1130318 58.077565-6.1130318 19.680769 0 39.104273 2.0591265 58.013247 6.1130318 16.657906 3.6034714 32.994231 8.7512877 48.816026 15.4434488 32.67265 13.8347563 62.065171 33.6538489 87.277137 58.8781482 25.211966 25.2243 45.021367 54.566853 58.849359 87.319834 14.342521 33.846892 21.54594 69.817258 21.54594 106.881535v24.066041c-2.379701 29.020815-9.325855 57.269456-20.709829 84.166796-13.892308 32.817329-33.766026 62.288577-59.042308 87.577225-25.276282 25.288647-54.733119 45.172087-87.534402 59.071191-33.958974 14.349538-70.040384 21.685176-107.21517 21.685176-37.174787 0-73.256197-7.27129-107.215171-21.685176-32.801282-13.899104-62.25812-33.782544-87.534402-59.071191-25.276282-25.288648-45.15-54.759896-59.042308-87.577225-11.44829-26.89734-18.394444-55.081634-20.774145-84.166796z"/></g></g><path d="m557.174928 309.754566c0-17.893757 14.504788-32.398545 32.397266-32.398545 17.893758 0 32.398546 14.504788 32.398546 32.398545 0 17.892478-14.504788 32.397266-32.398546 32.397266-17.892478 0-32.397266-14.504788-32.397266-32.397266z" fill="#000" fill-rule="nonzero"/><circle cx="481.164457" cy="311" r="238" stroke="#000" stroke-linecap="round" stroke-linejoin="round" stroke-width="20"/><g fill="#000"><path d="m719.789089 177-.000197 105.999084-37.999803.000916v57l37.999803-.000916.000197 106.000916c-15.498463-23.396404-25.885582-42.448216-31.161358-57.155436-5.275775-14.70722-9.555323-39.658494-12.838642-74.853823 4.535215-36.577258 9.577526-62.892785 15.126934-78.946581s15.173763-35.401849 28.873066-58.04416z" stroke="#000" stroke-linejoin="round" stroke-width="10" transform="matrix(-1 0 0 1 1394.830508 0)"/><circle cx="480" cy="826" r="35"/></g></g></svg>